<?xml version="1.0" encoding="UTF-8" standalone="no"?>
<svg id="svg3745" xmlns:rdf="http://www.w3.org/1999/02/22-rdf-syntax-ns#" xmlns="http://www.w3.org/2000/svg" version="1.1" xmlns:cc="http://creativecommons.org/ns#" xmlns:dc="http://purl.org/dc/elements/1.1/" viewBox="0 0 100 17.11">
 <metadata id="metadata3750">
  <rdf:RDF>
   <cc:Work rdf:about="">
    <dc:format>image/svg+xml</dc:format>
    <dc:type rdf:resource="http://purl.org/dc/dcmitype/StillImage"/>
    <dc:title/>
   </cc:Work>
  </rdf:RDF>
 </metadata>
 <g id="layer1" transform="matrix(0.08071066,0,0,0.08071066,-0.79390933,-1.425016)">
  <g id="g3806" fill-opacity="0.5" fill="#FFF">
   <path id="path3141" d="m140.81,21.971c6.065,8.9019,9.829,14.587,11.31,17.081,1.534,2.4588,2.3004,3.6872,2.3005,3.6871,0,0-45.033-1.1521-45.033-1.1521,6.1427,9.9569,10.775,18,13.911,24.152,3.1846,6.1052,5.9445,12.071,8.2822,17.901,2.3337,5.8203,5.2733,16.294,8.8152,31.399,0,0-41.978-0.007-41.978-0.007-5.2448-17.7-10.165-32.187-14.756-43.437-4.6062-11.286-10.616-21.553-18.046-30.811,0,0-39.548-1.0075-39.548-1.0075-7.0105-10.056-12.426-17.428-16.228-22.09,0,0,6.8734,0.22493,6.8734,0.22493s124.1,4.0609,124.1,4.0609"/>
   <path id="path3143" d="m201.65,114.8c-0.3706-7.3657-1.2974-13.531-2.7815-18.498-1.4327-4.9717-3.1857-10.002-5.2602-15.093-2.0244-5.1313-4.4254-10.646-7.205-16.547-2.7852-5.9463-5.8176-11.64-9.0988-17.082-3.2889-5.4881-6.2609-10.202-8.9139-14.137-2.6037-3.9406-5.3754-7.7578-8.3161-11.452,0,0,39.828,1.7139,39.828,1.7139,7.9267,11.149,13.816,19.852,17.694,26.143,3.919,6.2749,7.5148,13.29,10.79,21.044,3.2672,7.7027,5.6997,14.816,7.3018,21.348,1.6517,6.5246,2.9923,14.048,4.0228,22.57,0,0-38.06-0.0103-38.06-0.0103"/>
   <path id="path3145" d="m268.53,114.38c-1.0595-10.918-2.5238-19.428-4.3944-25.53-1.8226-6.1093-4.1295-12.414-6.9233-18.918-2.7486-6.5488-6.0899-13.354-10.028-20.419-3.9497-7.1191-7.6016-13.044-10.953-17.769-3.3082-4.7676-4.8099-7.0346-4.499-6.7927,0,0,41.857,1.3697,41.857,1.3697s35.041,22.396,35.041,22.396,10.607-21.239,10.607-21.239,36.51,1.5315,36.51,1.5315c6.2237,8.1249,11.013,15.686,14.383,22.698,3.3615,6.9942,5.8072,12.117,7.3424,15.378,1.5331,3.2265,3.6673,10.109,6.3997,20.633,2.7726,10.471,4.3873,19.496,4.8484,27.088,0,0-31.911-0.009-31.911-0.009-2.1742-13.703-4.4703-23.519-6.8889-29.438-2.4233-5.9296-6.6149-14.218-12.592-24.893,0,0-16.636,19.224-16.636,19.224s-31.518-18.614-31.518-18.614c5.2053,11.239,8.5164,19.745,9.9471,25.547,1.4291,5.7635,2.5368,11.842,3.3241,18.236,0.78667,6.3585,0.93413,9.6653,0.44259,9.9232,0,0-33.829-0.01-33.829-0.01s0.5292,0.3431,0.5292,0.3431-1.0586-0.73536-1.0586-0.73536"/>
   <path id="path3147" d="m409.7,114.39c-0.99817-9.2692-2.1788-17.043-3.5423-23.32-1.365-6.3152-3.0733-12.285-5.1262-17.91-2.0105-5.6335-4.3675-11.392-7.0731-17.278-2.6652-5.8967-6.8348-14.55-12.523-25.989,0,0,31.798,1.04,31.798,1.04s55.111,1.8479,55.111,1.8479c5.4037,7.6716,8.8285,13.538,10.29,17.62,0,0-55.668-1.7619-55.668-1.7619,2.9592,5.5889,5.219,10.258,6.7828,14.013,0,0,55.315,1.4542,55.315,1.4542,1.965,4.7901,3.7139,10.335,5.2476,16.635,0,0-55.148-0.76481-55.148-0.76481,2.2657,9.1975,3.4636,14.94,3.5966,17.239,0,0,56.205,0.71699,56.205,0.71699,0.72076,5.6074,1.1446,11.226,1.2718,16.857,0,0-86.536-0.0263-86.536-0.0263v-0.37185"/>
   <path id="path3149" d="m590.55,36.389c4.3416,7.507,7.0374,12.304,8.0984,14.41,1.0992,2.0761,1.6484,3.1134,1.6485,3.1133,0,0-32.195-0.82364-32.195-0.82364,4.3823,8.3908,7.6888,15.174,9.9282,20.365,2.275,5.1533,4.2473,10.191,5.9183,15.117,1.6686,4.9184,3.7709,13.773,6.3049,26.548,0,0-29.97-0.006-29.97-0.006-3.7351-14.935-7.2368-27.151-10.503-36.632-3.2752-9.5062-7.5459-18.145-12.822-25.923,0,0-28.013-0.71366-28.013-0.71366-4.9534-8.4276-8.7771-14.601-11.461-18.5,0,0,4.8518,0.15877,4.8518,0.15877s88.215,2.8867,88.215,2.8867"/>
   <path id="path3151" d="m604.35,35.891c26.444,1.075,44.186,1.8729,53.603,2.4081,9.3791,0.5323,15.148,1.2243,17.359,2.0779,2.2437,0.85332,4.5932,2.001,7.0478,3.442,2.4858,1.4114,4.7113,3.8677,6.6779,7.3668,1.9995,3.4666,3.8142,7.4075,5.4452,11.823,1.6285,4.3814,2.6045,7.3475,2.9298,8.9025,0.36109,1.5277,0.27081,3.4755-0.27096,5.8448-0.54222,2.3704-4.3623,4.889-11.493,7.5674,13.893,8.5803,24.231,18.648,31.108,30.229h-28.593c-5.219-5.9832-9.7819-10.428-13.681-13.323-3.9121-2.9319-10.269-6.2582-19.112-9.9927,0.86098,3.7241,2.3943,11.402,4.5974,23.02,0,0-30.036-0.004-30.036-0.004-1.3783-10.737-2.6815-19.135-3.9093-25.189-1.2291-6.0602-2.8442-12.061-4.8469-18.007-1.9675-5.9827-4.441-12.144-7.4238-18.49-2.9902-6.3896-6.1244-12.282-9.4035-17.677m45.955,38.348c7.9093,0.13852,12.979-0.0113,15.246-0.44798,2.2996-0.46316,3.6142-1.3912,3.9474-2.7846,0.3699-1.3922,0.38839-2.6371,0.0556-3.7355-0.33312-1.1265-1.3884-3.3472-3.1678-6.6657-1.7451-3.3505-3.9021-5.5517-6.4733-6.6017-2.5396-1.0793-8.9688-1.7583-19.352-2.037,3.2568,5.5488,6.5047,12.975,9.7438,22.272"/>
   <path id="path3153" d="m770.76,42.326c2.571,3.1067,4.9844,6.3218,7.2414,9.6457,2.2857,3.2916,4.634,7.3905,7.0442,12.294,2.4382,4.8935,4.5882,10.076,6.4515,15.55,1.8932,5.4646,3.4354,10.664,4.6279,15.602,1.1911,4.9326,2.2819,11.407,3.2727,19.421,0,0-22.659-0.007-22.659-0.007s-2.327-13.395-2.327-13.395-1.8751-6.4336-1.8751-6.4336-23.268-0.49759-23.268-0.49759,2.0178,9.8644,2.0178,9.8644,0.5684,10.454,0.5684,10.454-24.335-0.008-24.335-0.008c-0.6337-6.826-1.4614-12.578-2.4836-17.257-1.0232-4.6828-2.1887-9.303-3.4967-13.862-1.2742-4.5906-2.9399-9.2892-4.9987-14.098-2.0626-4.8453-4.0753-9.6981-6.038-14.558-1.9303-4.8671-1.6263-8.6148,0.91041-11.232,2.5667-2.6381,5.2342-3.9641,8.0019-3.9824,2.7963-0.0169,8.2983,0.12433,16.467,0.42208,8.1101,0.26866,19.773,0.96495,34.878,2.079m-3.1033,37.427c-1.9036-6.1495-3.4867-10.396-4.7479-12.733-1.2286-2.3657-3.4501-6.453-6.6706-12.273-11.865-0.94323-18.245-0.80469-19.047,0.42376-0.7679,1.2032-0.8552,3.0498-0.2617,5.5384,0.628,2.461,3.1192,8.6805,7.4615,18.631,0,0,23.266,0.41213,23.266,0.41213"/>
   <path id="path3155" d="m792.24,42.949s24.981,0.85726,24.981,0.85726c3.502,6.0577,7.0412,13.051,10.617,20.976,3.5643,7.8989,7.0691,18.88,10.515,32.928,3.5936-9.7708,5.4651-17.013,5.6237-21.751,0.19-4.7363,0.063-9.466-0.3804-14.191-0.4122-4.7521-1.1577-10.488-2.2372-17.211,0,0,24.544,0.80362,24.544,0.80362,0.9001,5.2836,1.5359,10.414,1.908,15.395,0.4028,4.9792,0.3718,10.818-0.093,17.521-0.4651,6.7055-2.2653,13.54-5.4074,20.517-3.1202,6.9974-6.4373,12.366-9.9534,16.1,0,0-31.878-0.01-31.878-0.01-2.5611-9.9622-5.5675-19.847-9.0228-29.66-3.4663-9.8437-6.7135-17.815-9.7397-23.902-3.0015-6.1029-5.2828-10.639-6.8394-13.598-1.5256-2.9626-2.2892-4.3526-2.2892-4.167,0,0-0.3488-0.60807-0.3488-0.60807"/>
   <path id="path3157" d="m892.68,114.6c-0.6664-7.5734-1.4545-13.924-2.3645-19.05-0.9109-5.1565-2.0505-10.029-3.4197-14.619-1.3405-4.5948-2.9117-9.2892-4.7145-14.085-1.7752-4.8029-4.5511-11.847-8.3355-21.151,0,0,21.194,0.69314,21.194,0.69314s36.958,1.246,36.958,1.246c3.6395,6.271,5.9475,11.072,6.9332,14.418,0,0-37.385-1.2306-37.385-1.2306,1.9799,4.5606,3.4924,8.3724,4.5394,11.44,0,0,37.182,1.0246,37.182,1.0246,1.3264,3.9297,2.5069,8.4813,3.5426,13.655,0,0-37.099-0.51448-37.099-0.51448,1.5185,7.5255,2.3215,12.225,2.4107,14.108,0,0,37.832,0.52949,37.832,0.52949,0.4871,4.6091,0.7736,9.2279,0.8596,13.858,0,0-58.133-0.0177-58.133-0.0177v-0.30384"/>
   <path id="path3159" d="m967.98,115.22c-1.0991-9.8466-2.1146-16.867-3.0464-21.057-0.9327-4.1936-2.2624-8.9477-3.9909-14.266-1.703-5.3268-3.6506-10.398-5.8445-15.215-2.1985-4.8268-4.0723-8.8048-5.6198-11.93-1.5211-3.1287-2.3829-4.8955-2.5843-5.2969,0,0,21.339,0.99741,21.339,0.99741,3.1208,5.1004,5.7141,9.8541,7.7841,14.266,2.0656,4.3789,3.8627,8.7067,5.3927,12.985,1.5276,4.2479,2.9421,8.5967,4.2438,13.047,1.3001,4.4203,2.1705,8.287,2.6124,11.603,0,0,37.634,0.53203,37.634,0.53203,0.7441,4.3222,1.1692,8.9247,1.2755,13.81,0,0-0.3586,0.24885-0.3586,0.24885s-58.203-0.0177-58.203-0.0177-0.6334,0.29284-0.6334,0.29284"/>
   <path id="path3161" d="m1058.8,51.411s19.009,0.62206,19.009,0.62206c2.8722,5.194,5.4323,10.584,7.6827,16.172,2.2703,5.5758,4.2461,10.914,5.9294,16.017,1.6803,5.0946,2.9824,10.096,3.9077,15.006,0.9245,4.8828,1.3116,7.9314,1.1618,9.1493-0.1249,1.2182-0.6495,2.3091-1.5743,3.2732-0.9008,0.9651-2.1157,1.7119-3.6457,2.2405-1.5328,0.50628-3.2693,0.85165-5.2107,1.0358-1.9203,0.18451-8.4674,0.2759-19.736,0.27387-8.2519-0.002-12.939-0.21388-14.01-0.63758-1.0719-0.42413-1.9225-1.0604-2.551-1.9089-0.6026-0.87255-1.0615-1.6982-1.3763-2.4766-0.2886-0.77863-0.8136-2.7608-1.5753-5.9481-0.7623-3.1898-2.1307-7.9104-4.1076-14.17,5.5255,0.307,11.281,0.38056,17.262,0.22267,1.3214,3.8569,2.3047,6.6758,2.9512,8.4599,0.6459,1.7595,1.6142,2.6903,2.9036,2.793,1.2878,0.0793,2.9079,0.12584,4.8588,0.13972,1.9725-0.009,3.3408-0.18554,4.1071-0.5288,0.7914-0.366,1.2122-1.4201,1.2632-3.1625,0.077-1.742-0.357-4.1517-1.3014-7.2316-0.9455-3.1061-2.2116-6.7441-3.7996-10.917-1.5651-4.2023-3.1457-8.0967-4.7415-11.682-1.5729-3.5909-2.993-6.7388-4.2599-9.4422-1.2688-2.7068-2.3185-5.1406-3.1488-7.3002"/>
   <path id="path3163" d="m1125.7,53.601c5.9865,0.19595,10.356,1.0708,13.13,2.622,2.7662,1.5243,4.7284,3.581,5.8921,6.1709,1.162,2.5644,2.2635,5.3927,3.3046,8.4847,0,0-16.966-0.16805-16.966-0.16805-1.5664-3.4494-3.8243-5.4189-6.7783-5.9053-2.9634-0.48784-5.7286-0.68751-8.294-0.59767-2.5477,0.0909-3.7505,0.70838-3.603,1.8524,0.1718,1.1445,0.6872,2.8557,1.5458,5.1323,0.8821,2.2524,1.7391,3.8192,2.5709,4.7015,0.8554,0.88209,2.0395,1.5995,3.551,2.152,1.5092,0.55177,4.4476,0.86957,8.8019,0.95375,4.3583,0.0843,8.852,0.49747,13.479,1.237,4.6041,0.73596,7.7596,2.6941,9.4804,5.8727,1.7178,3.1728,3.0334,7.4161,3.9484,12.73,0.9376,5.3092,1.0548,9.0403,0.3518,11.198-0.6802,2.1376-3.7821,3.9179-9.3302,5.3462,0,0-20.54-0.002-20.54-0.002-13.43,0.47752-20.958-4.1673-22.444-13.951,0,0-0.409-5.845-0.409-5.845s16.588,0.1729,16.588,0.1729c0.5115,2.9343,0.9984,4.8,1.4606,5.5979,0.4864,0.79772,1.0454,1.4141,1.677,1.8491,0.6311,0.43478,5.2425,0.67858,13.776,0.73123,3.1773-0.5871,4.2857-2.8144,3.3324-6.6865-0.9305-3.8757-2.5431-6.0772-4.8412-6.6026-2.3038-0.54918-5.6737-0.94489-10.121-1.187-4.4683-0.24315-8.6765-0.47218-12.621-0.68688-3.9609-0.23837-7.0475-1.1516-9.2512-2.7417-2.184-1.5933-3.9871-4.5037-5.407-8.7332-1.397-4.2582-2.6588-7.921-3.7844-10.987-1.1018-3.0685-1.9291-5.3952-2.4809-6.9783-0.5272-1.6062-0.1381-3.0006,1.1661-4.1815,1.3273-1.1784,3.2151-1.8998,5.6599-2.1652,2.4635-0.26375,7.1366-0.28229,13.987-0.0573,6.8015,0.2235,11.18,0.44664,13.167,0.6703"/>
   <path id="path3165" d="m1159.9,60.81s4.9804,6.9792,4.9804,6.9792,28.189,0.60745,28.189,0.60745c2.1202,4.509,4.3982,9.3531,6.8326,14.53,2.4548,5.137,4.0563,9.9219,4.809,14.362,0,0-27.994-0.36168-27.994-0.36168s2.4486,8.5195,2.4486,8.5195c-7.7974-7.2786-16.266-15.392-25.422-24.359,0,0,6.1567-20.278,6.1567-20.278m49.354,8.2008c2.4295,4.607,4.5999,9.2095,6.5131,13.809,1.909,4.5901,3.391,9.4641,4.4482,14.625,0,0-10.921-0.10994-10.921-0.10994-0.1071-3.5057-1.8332-8.7753-5.1879-15.828-3.3672-7.1051-5.5153-11.442-6.4355-12.991,0,0,11.583,0.4953,11.583,0.4953m15.545,28.325c-0.7099-3.3273-1.5255-6.3863-2.4472-9.177-0.9227-2.7936-3.8818-9.153-8.8973-19.118,0,0,7.5525,0.27252,7.5525,0.27252,2.6086,4.6335,4.186,7.6252,4.7375,8.9846,0.5772,1.3332,1.757,4.127,3.5368,8.3756,1.7762,4.2402,2.7542,7.8174,2.9366,10.737,0,0-7.4189-0.0752-7.4189-0.0752m12.409,0.12599c-0.6223-3.3033-1.4006-6.2117-2.3354-8.7254-0.91-2.5158-1.8729-4.8029-2.889-6.8611-1.0172-2.0863-3.0683-6.124-6.1601-12.127,0,0,5.1039,0.13038,5.1039,0.13038,1.0171,1.2914,2.0592,2.995,3.1263,5.1098,1.0656,2.1124,1.7408,3.5056,2.0263,4.1814,0.2853,0.64989,0.791,1.6773,1.5167,3.0815,0.7249,1.3774,2.3411,6.4583,4.8438,15.225,0,0-5.2325-0.0146-5.2325-0.0146m8.7808-0.17987c-0.3851-2.1054-0.6676-3.5697-0.8473-4.3922-0.1542-0.82231-0.4625-1.852-0.925-3.0895-0.4374-1.2377-1.0292-3.0046-1.776-5.3016-0.7218-2.2984-3.0325-7.048-6.9446-14.271,0,0,3.1881-0.0348,3.1881-0.0348,2.9187,4.5694,4.7735,8.0886,5.571,10.567,0.8223,2.4771,1.7594,5.1588,2.8109,8.0443,1.0757,2.8568,1.677,5.7046,1.8051,8.5455,0,0-2.8822-0.068-2.8822-0.068"/>
   <path id="path3506" d="m230.92,125.08s-1.8311,14.737-1.8311,14.737-0.96813,3.4426-0.96813,3.4426-0.88185,2.5574-0.88185,2.5574-34.769-0.15841-34.769-0.15841c-26.722-0.31031-41.252,0.68081-43.191,2.9806-1.9419,2.3033-3.2577,5.2511-3.9457,8.8424-0.6257,3.5927-1.88,8.2269-3.765,13.908-1.8248,5.6884-3.5264,10.484-5.1045,14.383-1.5802,3.8659-2.6239,6.7074-3.1299,8.5214-0.50632,1.8149-0.66407,3.1226-0.4731,3.9225,0.19083,0.76154,0.47684,1.5395,0.858,2.3337,0.44431,0.75399,1.4905,1.5288,3.1372,2.3238,1.7078,0.79233,4.4228,1.2098,8.1389,1.253,3.7058,0.005,8.2772-0.0159,13.705-0.0627,5.4063-0.0465,8.7496-1.5276,10.045-4.4411,1.2939-2.9105,2.2173-5.0335,2.771-6.3708,0.5533-1.3367,0.24399-2.2547-0.92851-2.7547-1.1737-0.53821-5.7523-0.72893-13.77-0.57112,0,0,7.7186-19.677,7.7186-19.677s12.123-0.37825,12.123-0.37825,16.299-0.27945,16.299-0.27945,17.182-0.0712,17.182-0.0712,12.075,0.0143,12.075,0.0143c-3.6025,13.945-6.5972,23.008-8.9794,27.163-2.387,4.1256-4.9568,9.3459-7.7105,15.666-2.7601,6.2963-8.0992,10.213-16.048,11.747-7.997,1.5054-24.509,2.738-49.852,3.7044-25.758,0.98222-39.177,1.4939-39.893,1.5212-0.65038,0.0248-2.929,0.11169-6.844,0.26098-3.8606,0.14721-7.5019-0.007-10.922-0.46276-3.3628-0.49882-5.6091-1.6086-6.7336-3.3294-1.1916-1.7589-1.6553-3.9761-1.3903-6.6498,0.2649-2.673,1.9523-7.0943,5.0569-13.253,3.0972-6.1834,6.3183-13.526,9.6622-22.021,3.3352-8.512,5.8145-15.648,7.4427-21.42,1.6911-5.7651,3.0228-10.472,3.9963-14.125,0.97267-3.6885,1.5234-6.2679,1.6526-7.7403,0.1292-1.472,0.67981-3.159,1.6513-5.0599,1.0354-1.9382,4.7192-4.3076,11.03-7.0993,6.2816-2.7787,13.267-4.2407,20.946-4.3952,7.6358-0.15339,19.385-0.15424,35.14-0.004,15.573,0.14821,35.811,0.49832,60.499,1.0439"/>
   <path id="path3508" d="m371.92,124.48c1.1749,3.945,2.0068,8.0448,2.4963,12.301,0.48901,4.2204,0.34951,9.5096-0.41884,15.872-0.71646,6.367-2.1714,13.153-4.3677,20.365-2.2008,7.2264-4.6993,14.141-7.4971,20.745-2.8048,6.6201-7.2964,15.374-13.494,26.291,0,0-37.138,1.4193-37.138,1.4193s9.4797-18.258,9.4797-18.258,3.1906-8.6588,3.1906-8.6588-37.686,0.66902-37.686,0.66902-6.514,13.406-6.514,13.406-9.6356,14.415-9.6356,14.415-40.65,1.5535-40.65,1.5535c5.9934-9.459,10.527-17.373,13.615-23.764,3.081-6.3747,5.8636-12.635,8.3499-18.782,2.539-6.1727,4.5231-12.451,5.9548-18.838,1.4875-6.4166,3.0884-12.826,4.8022-19.228,1.7112-6.392,5.9459-11.381,12.679-14.961,6.7546-3.5966,12.378-5.46,16.884-5.604,4.547-0.14337,13.288-0.19577,26.137-0.15787,12.775,0.002,30.787,0.41056,53.813,1.2139m-81.17,50.149s39.685-0.4104,39.685-0.4104c3.1388-8.1577,4.8908-13.757,5.2622-16.812,0.371-3.0897,1.1426-8.4155,2.3138-15.972-18.972-0.68767-29.785-0.20329-32.226,1.4633-2.4468,1.6341-4.4213,4.0936-5.9214,7.3793-1.4462,3.2533-4.34,11.213-8.692,23.91,0,0-0.42131,0.44155-0.42131,0.44155"/>
   <path id="path3510" d="m376.29,218.68s1.9636-3.0608,5.8811-9.1673c3.9568-6.088,7.8455-12.936,11.667-20.54,3.8601-7.615,6.9589-15.241,9.3023-22.886,2.3898-7.6294,4.3922-14.584,6.0092-20.868,1.6657-6.2754,2.5922-11.37,2.7813-15.289,0.18899-3.9185,0.48795-5.8774,0.89677-5.8776,0,0,30.202-0.004,30.202-0.004s28.387,49.882,28.387,49.882c4.6002-14.473,7.4826-24.989,8.6607-31.588,1.1764-6.6249,1.9198-12.723,2.2311-18.3,0,0,35.783-0.005,35.783-0.005-2.8483,20.254-6.7603,36.775-11.747,49.559-4.9622,12.809-8.2302,20.769-9.7887,23.841-1.5132,3.075-4.9785,8.8861-10.414,17.461,0,0-27.838,1.0143-27.838,1.0143s-23.744-36.402-23.744-36.402c-6.1894,13.444-10.126,21.778-11.786,24.951-1.6119,3.1758-4.3665,7.5648-8.2718,13.178,0,0-37.894,1.4498-37.894,1.4498s-0.31756-0.40729-0.31756-0.40729"/>
   <path id="path3512" d="m636.13,124.77c-0.75067,7.9376-1.3092,13.02-1.6752,15.242-0.36636,2.2235-0.54954,3.3355-0.54943,3.3354,0,0-32.004,0.28136-32.004,0.28136-0.90452,8.7702-2.0814,15.965-3.5316,21.584-1.4088,5.5946-3.0613,11.091-4.9583,16.491-1.9007,5.4098-4.2876,11.148-7.1638,17.218-2.8401,6.0534-4.9221,10.169-6.2417,12.337,0,0-33.747,1.2904-33.747,1.2904s11.265-25.024,11.265-25.024c7.8336-19.45,11.454-33.965,10.905-43.651,0,0-33.92,0.29749-33.92,0.29749s1.5901-13.137,1.5901-13.137,0.0356-6.2172,0.0356-6.2172,5.2428-0.003,5.2428-0.003,94.752-0.0459,94.752-0.0459"/>
   <path id="path3514" d="m738.63,124.72c-0.672,7.5732-1.1732,12.422-1.5032,14.542-0.3303,2.1212-0.4954,3.1821-0.4953,3.182,0,0-29.112,0.25593-29.112,0.25593-0.80952,8.3611-1.8689,15.22-3.1788,20.576-1.2724,5.3322-2.7661,10.57-4.4822,15.716-1.7192,5.1543-3.8796,10.62-6.4838,16.402-2.571,5.7646-4.4561,9.6832-5.6514,11.747,0,0-30.626,1.1711-30.626,1.1711s10.183-23.815,10.183-23.815c7.0806-18.52,10.346-32.345,9.8334-41.574,0,0-30.771,0.26987-30.771,0.26987s1.422-12.508,1.422-12.508,0.023-5.9197,0.023-5.9197,4.7537-0.002,4.7537-0.002,86.089-0.0417,86.089-0.0417"/>
   <path id="path3516" d="m767.07,205.86c6.393-11.502,11.044-20.428,13.976-26.818,2.9235-6.3704,5.4214-12.64,7.4969-18.812,2.1085-6.1888,3.8338-12.522,5.1777-19.004,1.3793-6.5013,2.2541-12.358,2.6258-17.575,0,0,37.658,0.00071,37.658,0.00071,18.973,0.40192,29.609,1.7124,32.162,3.9329,2.5466,2.1868,3.5711,5.0856,3.0778,8.7021-0.4937,3.6188-1.2825,7.6271-2.367,12.027-1.0509,4.4052-1.9216,7.414-2.6117,9.0236-0.691,1.5823-2.0843,3.6213-4.1828,6.1203-2.0678,2.5037-7.5003,5.2871-16.352,8.3664,5.2741,8.5398,8.9175,18.857,10.947,30.968,0,0-28.685,1.1071-28.685,1.1071-1.1873-6.2196-2.7654-10.8-4.7362-13.74-1.9378-2.9757-5.5826-6.6094-10.952-10.913-1.3094,3.4681-2.4226,6.098-3.339,7.8876-0.9176,1.7619-3.9514,7.5966-9.1211,17.542,0,0-30.31,1.1654-30.31,1.1654s-0.4642,0.0178-0.4642,0.0178m48.193-45.17c8.0222-0.14204,13.304-0.48253,15.886-1.0213,2.5756-0.5373,4.4892-1.511,5.7444-2.9207,1.2897-1.4084,2.1459-2.6643,2.5697-3.7685,0.4593-1.133,1.2505-3.4826,2.3728-7.0458,1.1565-3.588,0.5268-5.7166-1.8924-6.3903-2.4249-0.6751-8.4264-0.87745-18.067-0.60398-0.9846,5.2237-2.2139,9.902-3.6887,14.035-1.4403,4.1392-2.4156,6.7124-2.9244,7.7152"/>
   <path id="path3518" d="m866.92,201.25c4.3446-8.6834,7.723-15.921,10.145-21.73,2.4505-5.8234,4.4301-11.296,5.9417-16.422,1.5089-5.118,2.8422-10.324,4.0003-15.619,1.191-5.2882,2.7025-12.91,4.5328-22.854,0,0,24.428-0.0113,24.428-0.0113s40.546,0.0221,40.546,0.0221c-0.3203,6.5646-0.9924,11.677-2.0172,15.338,0,0-41.449,0.0537-41.449,0.0537-0.7923,4.9945-1.593,9.1852-2.402,12.571,0,0,41.556-0.31574,41.556-0.31574-1.0225,4.3336-2.6213,9.3809-4.7995,15.149,0,0-41.974,0.93821-41.974,0.93821-3.2087,8.4538-5.4197,13.762-6.6256,15.904,0,0,43.095-1.0132,43.095-1.0132-2.4644,5.2221-5.1647,10.48-8.1029,15.776,0,0-67.136,2.5671-67.136,2.5671s0.2607-0.3526,0.2607-0.3526"/>
   <path id="path3520" d="m1035.1,124.28c0.682,2.9519,1.173,6.02,1.4733,9.2054,0.2999,3.1587,0.2543,7.1164-0.1369,11.876-0.362,4.7617-1.1347,9.8337-2.3193,15.22-1.1865,5.3941-2.5406,10.551-4.0632,15.472-1.5254,4.9295-3.9777,11.438-7.3646,19.542,0,0-20.601,0.78732-20.601,0.78732s5.1328-13.514,5.1328-13.514,1.7143-6.4251,1.7143-6.4251-20.808,0.29739-20.808,0.29739-3.4975,9.8984-3.4975,9.8984-5.1986,10.609-5.1986,10.609-22.191,0.84807-22.191,0.84807c3.2022-6.9324,5.6222-12.742,7.2661-17.441,1.6408-4.6901,3.1205-9.2998,4.4399-13.831,1.3488-4.5516,2.3941-9.1855,3.137-13.904,0.7735-4.7413,1.6094-9.4787,2.5074-14.212,0.8971-4.7278,3.1864-8.4175,6.858-11.065,3.6881-2.6639,6.7695-4.0456,9.25-4.1525,2.505-0.10654,7.328-0.14575,14.434-0.11799,7.0831,0.001,17.104,0.30548,29.968,0.90651m-44.754,37.205s21.937-0.15513,21.937-0.15513c1.6922-6.0662,2.6308-10.233,2.8182-12.509,0.187-2.3019,0.5828-6.27,1.187-11.901-10.532-0.53688-16.51-0.19057-17.849,1.0447-1.341,1.2106-2.4155,3.0344-3.2227,5.4719-0.7775,2.4128-2.3233,8.3146-4.6417,17.723,0,0-0.2293,0.32599-0.2293,0.32599"/>
   <path id="path3522" d="m1054.9,124.82s-0.1396-0.85317-0.1396-0.85317,24.077-0.004,24.077-0.004c16.82,0.55382,25.83,1.0277,27.258,1.4289,1.4256,0.37552,2.5655,0.98926,3.4208,1.8411,0.854,0.82608,1.5226,2.1408,2.0062,3.9441,0.5105,1.8024,0.8627,4.0309,1.0569,6.6859,0.1938,2.6297-0.01,6.2158-0.6076,10.761-0.5726,4.524-1.64,9.877-3.204,16.065-1.5672,6.2007-2.602,10.169-3.1023,11.896-0.4733,1.7275-1.1268,3.323-1.9607,4.7868-0.8352,1.44-1.8629,2.951-3.084,4.5336-1.2232,1.5596-2.6308,2.8495-4.2238,3.8696-1.5962,0.99656-3.5725,1.8314-5.9313,2.5045-2.3653,0.6494-19.679,1.6821-52.811,3.1351,4.1503-8.4066,6.692-14.825,7.6391-19.28,0.9459-4.4502,2.0358-8.9766,3.2692-13.578,1.2313-4.6204,2.2787-9.9184,3.143-15.894,0.8922-5.969,1.9572-13.252,3.1942-21.844m11.086,53.59c9.8479-0.29313,15.406-0.63731,16.752-1.0344,1.3716-0.39732,2.4995-1.0928,3.3846-2.086,0.9119-1.0185,1.768-3.1664,2.5684-6.442,0.8274-3.273,1.5991-6.478,2.3151-9.6154,0.7428-3.1604,1.1383-6.2488,1.187-9.2672,0.049-3.0178-0.048-5.3618-0.2893-7.0324-0.2417-1.6709-0.7437-2.9976-1.5064-3.9803-0.7355-0.98363-2.3318-1.5553-4.7934-1.7149-2.4683-0.15986-6.3081-0.22097-11.537-0.18285-0.4072,4.1255-0.7263,7.2662-0.9574,9.4208-0.2312,2.1554-0.4894,4.4399-0.7746,6.8539-0.2855,2.415-0.8232,5.1564-1.6138,8.2256-0.7629,3.0716-1.443,5.9642-2.0401,8.6772-0.5691,2.7143-1.467,5.4398-2.695,8.178"/>
   <path id="path3524" d="m1112.6,191.89c3.3316-7.6199,5.9218-13.975,7.7776-19.078,1.8781-5.1177,3.3931-9.9292,4.5469-14.438,1.152-4.5025,2.1677-9.0836,3.0476-13.744,0.9054-4.6553,2.0517-11.366,3.4375-20.125,0,0,18.981-0.009,18.981-0.009s31.626,0.0215,31.626,0.0215c-0.2284,5.8045-0.7368,10.324-1.5257,13.56,0,0-32.32,0.012-32.32,0.012-0.5994,4.4038-1.2078,8.0983-1.8253,11.083,0,0,32.393-0.21615,32.393-0.21615-0.7844,3.8287-2.0166,8.2866-3.6986,13.379,0,0-32.696,0.73083-32.696,0.73083-2.4642,7.4423-4.1633,12.113-5.0924,13.996,0,0,33.544-0.75836,33.544-0.75836-1.9055,4.6041-3.9943,9.2376-6.2677,13.902,0,0-52.128,1.9932-52.128,1.9932s0.2003-0.30899,0.2003-0.30899"/>
   <path id="path3526" d="m1181.7,189.91c4.0981-9.2359,7.0796-16.412,8.9569-21.554,1.8728-5.1301,3.4697-10.183,4.7921-15.161,1.3446-4.9934,2.4387-10.106,3.2834-15.341,0.868-5.2524,1.4098-9.9854,1.6262-14.203,0,0,24.69,0.00047,24.69,0.00047,12.506,0.32651,19.541,1.3926,21.241,3.1992,1.6965,1.78,2.3892,4.1393,2.0805,7.0816-0.309,2.9438-0.8113,6.2038-1.5073,9.7815-0.6736,3.581-1.2348,6.0261-1.6833,7.3333-0.4493,1.2849-1.3606,2.939-2.7355,4.9645-1.3541,2.0286-4.9278,4.2724-10.75,6.742,3.5198,6.9528,5.9752,15.348,7.3751,25.195,0,0-18.885,0.72886-18.885,0.72886-0.811-5.0453-1.8701-8.7636-3.1785-11.155-1.2864-2.419-3.6951-5.3773-7.2353-8.8831-0.84,2.8003-1.5556,4.9228-2.1465,6.3661-0.5917,1.4206-2.5471,6.1234-5.8767,14.133,0,0-19.746,0.75918-19.746,0.75918s-0.3016,0.0116-0.3016,0.0116m31.227-36.271c5.2623-0.0932,8.7299-0.35476,10.424-0.78455,1.6912-0.42885,2.9453-1.2135,3.7644-2.3539,0.8419-1.1394,1.3994-2.1563,1.6729-3.0513,0.2968-0.91834,0.8062-2.8233,1.5277-5.713,0.7441-2.9104,0.3185-4.6389-1.2784-5.1885-1.6-0.55055-5.5497-0.72137-11.882-0.51049-0.62,4.2304-1.4032,8.0176-2.3499,11.362-0.9238,3.3483-1.5504,5.4292-1.8789,6.2396"/>
  </g>
 </g>
</svg>
